<svg width="32" height="32" viewBox="0 0 32 32" fill="none" xmlns="http://www.w3.org/2000/svg">
  <defs>
    <linearGradient id="brainGradient" x1="0%" y1="0%" x2="100%" y2="100%">
      <stop offset="0%" style="stop-color:#6366f1;stop-opacity:1" />
      <stop offset="50%" style="stop-color:#8b5cf6;stop-opacity:1" />
      <stop offset="100%" style="stop-color:#ec4899;stop-opacity:1" />
    </linearGradient>
  </defs>
  
  <!-- Background -->
  <rect width="32" height="32" rx="6" fill="url(#brainGradient)" opacity="0.1"/>
  
  <!-- Neural network -->
  <circle cx="16" cy="16" r="14" fill="none" stroke="url(#brainGradient)" stroke-width="1.5"/>
  
  <!-- Nodes -->
  <circle cx="11" cy="11" r="2" fill="url(#brainGradient)"/>
  <circle cx="21" cy="11" r="2" fill="url(#brainGradient)"/>
  <circle cx="16" cy="16" r="2.5" fill="url(#brainGradient)"/>
  <circle cx="11" cy="21" r="2" fill="url(#brainGradient)"/>
  <circle cx="21" cy="21" r="2" fill="url(#brainGradient)"/>
  
  <!-- Connections -->
  <path d="M11 11 L16 16 L21 11" stroke="url(#brainGradient)" stroke-width="1.5" fill="none" opacity="0.7"/>
  <path d="M11 21 L16 16 L21 21" stroke="url(#brainGradient)" stroke-width="1.5" fill="none" opacity="0.7"/>
  
  <!-- Chat bubble -->
  <path d="M21 7 Q25 7 25 10 Q25 13 21 13 L19 13 L20 15 L18 13 Q14 13 14 10 Q14 7 18 7 Z" 
        fill="url(#brainGradient)" opacity="0.9"/>
  <circle cx="17" cy="10" r="0.5" fill="white"/>
  <circle cx="19" cy="10" r="0.5" fill="white"/>
  <circle cx="21" cy="10" r="0.5" fill="white"/>
</svg> 