<svg width="50" height="50" viewBox="0 0 50 50" fill="none" xmlns="http://www.w3.org/2000/svg">
  <defs>
    <linearGradient id="brainGradient" x1="0%" y1="0%" x2="100%" y2="100%">
      <stop offset="0%" style="stop-color:#6366f1;stop-opacity:1" />
      <stop offset="50%" style="stop-color:#8b5cf6;stop-opacity:1" />
      <stop offset="100%" style="stop-color:#ec4899;stop-opacity:1" />
    </linearGradient>
    <filter id="glow">
      <feGaussianBlur stdDeviation="2" result="coloredBlur"/>
      <feMerge> 
        <feMergeNode in="coloredBlur"/>
        <feMergeNode in="SourceGraphic"/>
      </feMerge>
    </filter>
  </defs>
  
  <!-- Background circle -->
  <circle cx="25" cy="25" r="24" fill="url(#brainGradient)" opacity="0.1"/>
  <circle cx="25" cy="25" r="22" fill="none" stroke="url(#brainGradient)" stroke-width="2"/>
  
  <!-- Neural network nodes -->
  <circle cx="17" cy="17" r="3" fill="url(#brainGradient)" filter="url(#glow)"/>
  <circle cx="33" cy="17" r="3" fill="url(#brainGradient)" filter="url(#glow)"/>
  <circle cx="25" cy="25" r="4" fill="url(#brainGradient)" filter="url(#glow)"/>
  <circle cx="17" cy="33" r="3" fill="url(#brainGradient)" filter="url(#glow)"/>
  <circle cx="33" cy="33" r="3" fill="url(#brainGradient)" filter="url(#glow)"/>
  
  <!-- Neural connections -->
  <path d="M17 17 L25 25 L33 17" stroke="url(#brainGradient)" stroke-width="2" fill="none" opacity="0.7"/>
  <path d="M17 33 L25 25 L33 33" stroke="url(#brainGradient)" stroke-width="2" fill="none" opacity="0.7"/>
  <path d="M17 17 L17 33" stroke="url(#brainGradient)" stroke-width="1.5" fill="none" opacity="0.5"/>
  <path d="M33 17 L33 33" stroke="url(#brainGradient)" stroke-width="1.5" fill="none" opacity="0.5"/>
  
  <!-- Chat bubble overlay -->
  <path d="M33 10 Q38 10 38 15 Q38 20 33 20 L30 20 L31 23 L28 20 Q23 20 23 15 Q23 10 28 10 Z" 
        fill="url(#brainGradient)" opacity="0.9"/>
  <circle cx="26" cy="15" r="1" fill="white"/>
  <circle cx="29" cy="15" r="1" fill="white"/>
  <circle cx="32" cy="15" r="1" fill="white"/>
</svg> 